{"title":"Teen Wolf S05E02 Parasomnia 1080p WEB-DL DD5 1 H 264","uid":12080838,"size":1709422992,"categoryP":"video","categoryS":"hd___tv_shows","magnet":"?xt=urn:btih:6fa64c7e411e1c4c1d160dfd894aecf360466e38&amp;dn=Teen+Wolf+S05E02+Parasomnia+1080p+WEB-DL+DD5+1+H+264&amp;tr=udp%3A%2F%2Ftracker.openbittorrent.com%3A80&amp;tr=udp%3A%2F%2Fopen.demonii.com%3A1337&amp;tr=udp%3A%2F%2Ftracker.coppersurfer.tk%3A6969&amp;tr=udp%3A%2F%2Fexodus.desync.com%3A6969","seeders":0,"leechers":0,"uploader":"jmanwf","files":2,"time":1435763331,"description":"Stiles tries to prove his suspicions about a new classmate while Lydia helps a student with night terrors.\n\n\n\nVideo\nID : 2\nFormat : AVC\nFormat/Info : Advanced Video Codec\nFormat profile : High@L4\nFormat settings, CABAC : Yes\nFormat settings, ReFrames : 4 frames\nCodec ID : avc1\nCodec ID/Info : Advanced Video Coding\nDuration : 41mn 56s\nSource duration : 41mn 56s\nBit rate : 4 922 Kbps\nWidth : 1 916 pixels\nHeight : 1 076 pixels\nDisplay aspect ratio : 16:9\nFrame rate mode : Variable\nFrame rate : 23.976 fps\nMinimum frame rate : 23.976 fps\nMaximum frame rate : 24.897 fps\nColor space : YUV\nChroma subsampling : 4:2:0\nBit depth : 8 bits\nScan type : Progressive\nBits/(Pixel*Frame) : 0.100\nStream size : 1.44 GiB (91%)\nSource stream size : 1.44 GiB (91%)\nLanguage : English\nEncoded date : UTC 2015-07-01 08:12:16\nTagged date : UTC 2015-07-01 08:15:43\nColor range : Limited\nColor primaries : BT.709\nTransfer characteristics : BT.709\nMatrix coefficients : BT.709\n\nAudio #1\nID : 1\nFormat : AAC\nFormat/Info : Advanced Audio Codec\nFormat profile : LC\nCodec ID : 40\nDuration : 41mn 56s\nDuration_LastFrame : -8ms\nBit rate mode : Variable\nBit rate : 124 Kbps\nMaximum bit rate : 205 Kbps\nChannel(s) : 2 channels\nChannel positions : Front: L R\nSampling rate : 48.0 KHz\nCompression mode : Lossy\nStream size : 37.3 MiB (2%)\nLanguage : English\nEncoded date : UTC 2015-07-01 08:12:16\nTagged date : UTC 2015-07-01 08:15:43\n\nAudio #2\nID : 3\nFormat : AC-3\nFormat/Info : Audio Coding 3\nMode extension : CM (complete main)\nFormat settings, Endianness : Big\nCodec ID : ac-3\nDuration : 41mn 56s\nDuration_LastFrame : -1ms\nBit rate mode : Constant\nBit rate : 384 Kbps\nChannel(s) : 6 channels\nChannel positions : Front: L C R, Side: L R, LFE\nSampling rate : 48.0 KHz\nBit depth : 16 bits\nCompression mode : Lossy\nStream size : 115 MiB (7%)\nLanguage : English\nEncoded date : UTC 2015-07-01 08:12:16\nTagged date : UTC 2015-07-01 08:15:43\n\nText\nID : 4-CC1\nFormat : EIA-608\nMuxing mode : Final Cut\nCodec ID : c608\nDuration : 41mn 18s\nBit rate mode : Constant\nStream size : 0.00 Byte (0%)\nLanguage : English\nEncoded date : UTC 2015-07-01 08:12:16\nTagged date : UTC 2015-07-01 08:15:10\n\n\n\n &lt;a href=&quot;\nhttps://itunes.apple.com/us/tv-season/teen-wolf-season-5/id1001344135&quot; rel=&quot;nofollow&quot; target=&quot;_NEW&quot;&gt;\nhttps://itunes.apple.com/us/tv-season/teen-wolf-season-5/id1001344135&lt;/a&gt;","torrent":{"xt":"urn:btih:6fa64c7e411e1c4c1d160dfd894aecf360466e38","amp;dn":"Teen+Wolf+S05E02+Parasomnia+1080p+WEB-DL+DD5+1+H+264","amp;tr":["udp%3A%2F%2Ftracker.openbittorrent.com%3A80","udp%3A%2F%2Fopen.demonii.com%3A1337","udp%3A%2F%2Ftracker.coppersurfer.tk%3A6969","udp%3A%2F%2Fexodus.desync.com%3A6969"],"infoHash":"6fa64c7e411e1c4c1d160dfd894aecf360466e38","infoHashBuffer":{"type":"Buffer","data":[111,166,76,126,65,30,28,76,29,22,13,253,137,74,236,243,96,70,110,56]},"announce":[],"urlList":[]}}